<svg width="24" height="24" viewBox="0 0 24 24" fill="none" xmlns="http://www.w3.org/2000/svg">
<g clip-path="url(#clip0_3291_24935)">
<path d="M18.9564 18.1775H18.433V10.7632C18.433 7.68629 16.1585 5.14361 13.1994 4.72056V3.87227C13.1994 3.39034 12.809 3 12.3271 3C11.8452 3 11.4548 3.39034 11.4548 3.87227V4.72056C8.49563 5.14361 6.22118 7.68629 6.22118 10.7632V18.1775H5.69782C5.31184 18.1775 5 18.4894 5 18.8754V19.5732C5 19.6691 5.0785 19.7476 5.17445 19.7476H9.88473C9.88473 21.0953 10.9794 22.19 12.3271 22.19C13.6748 22.19 14.7695 21.0953 14.7695 19.7476H19.4797C19.5757 19.7476 19.6542 19.6691 19.6542 19.5732V18.8754C19.6542 18.4894 19.3423 18.1775 18.9564 18.1775ZM12.3271 20.7944C11.7492 20.7944 11.2804 20.3255 11.2804 19.7476H13.3738C13.3738 20.3255 12.905 20.7944 12.3271 20.7944ZM7.79127 18.1775V10.7632C7.79127 9.55077 8.2623 8.41245 9.11931 7.55544C9.97632 6.69844 11.1146 6.22741 12.3271 6.22741C13.5395 6.22741 14.6779 6.69844 15.5349 7.55544C16.3919 8.41245 16.8629 9.55077 16.8629 10.7632V18.1775H7.79127Z" fill="#151515"/>
</g>
<defs>
<clipPath id="clip0_3291_24935">
<rect width="20" height="20" fill="white" transform="translate(2 2)"/>
</clipPath>
</defs>
</svg>
