<svg width="12" height="12" viewBox="0 0 12 12" fill="none" xmlns="http://www.w3.org/2000/svg">
<path d="M5.50195 0.0234375H6.49805C6.58659 0.0234375 6.63086 0.0677083 6.63086 0.15625V11.8438C6.63086 11.9323 6.58659 11.9766 6.49805 11.9766H5.50195C5.41341 11.9766 5.36914 11.9323 5.36914 11.8438V0.15625C5.36914 0.0677083 5.41341 0.0234375 5.50195 0.0234375Z" fill="#116AB5"/>
<path d="M11.8438 5.36914C11.9323 5.36914 11.9766 5.41341 11.9766 5.50195V6.49805C11.9766 6.58659 11.9323 6.63086 11.8438 6.63086H0.15625C0.0677083 6.63086 0.0234375 6.58659 0.0234375 6.49805V5.50195C0.0234375 5.41341 0.0677083 5.36914 0.15625 5.36914H11.8438Z" fill="#116AB5"/>
</svg>
