<svg width="14" height="14" viewBox="0 0 14 14" fill="none" xmlns="http://www.w3.org/2000/svg">
<path d="M12.5 7.09422H6.90626V1.50047C6.90626 1.43172 6.85001 1.37547 6.78126 1.37547H6.37501C5.55423 1.37413 4.74128 1.53509 3.98294 1.8491C3.2246 2.16311 2.53583 2.62397 1.95626 3.20516C1.38549 3.77416 0.930713 4.44864 0.617197 5.1911C0.290955 5.96116 0.123548 6.78916 0.125009 7.62547C0.123665 8.44626 0.284628 9.2592 0.598638 10.0175C0.912647 10.7759 1.37351 11.4647 1.9547 12.0442C2.52813 12.6177 3.19689 13.0692 3.94063 13.3833C4.71069 13.7095 5.5387 13.8769 6.37501 13.8755C7.19579 13.8768 8.00874 13.7159 8.76708 13.4018C9.52542 13.0878 10.2142 12.627 10.7938 12.0458C11.3672 11.4724 11.8188 10.8036 12.1328 10.0598C12.4591 9.28979 12.6265 8.46179 12.625 7.62547V7.21922C12.625 7.15047 12.5688 7.09422 12.5 7.09422ZM10.0266 11.3098C9.54274 11.7899 8.96894 12.1698 8.33805 12.4277C7.70716 12.6857 7.03158 12.8166 6.35001 12.813C4.97345 12.8067 3.6797 12.2677 2.70626 11.2942C1.72657 10.3145 1.18751 9.01141 1.18751 7.62547C1.18751 6.23954 1.72657 4.93641 2.70626 3.95672C3.55938 3.1036 4.65782 2.58329 5.84376 2.46454V8.15672H11.5359C11.4156 9.34891 10.8906 10.4536 10.0266 11.3098ZM13.875 6.22547L13.8344 5.78485C13.7016 4.34579 13.0625 2.98797 12.0344 1.96297C11.0055 0.936094 9.65051 0.300577 8.20314 0.1661L7.76095 0.125475C7.68751 0.119225 7.62501 0.175475 7.62501 0.248912V6.25047C7.62501 6.31922 7.68126 6.37547 7.75001 6.37547L13.75 6.35985C13.8234 6.35985 13.8813 6.29735 13.875 6.22547ZM8.68439 5.3161V1.30672C9.66866 1.51274 10.5719 2.00019 11.2844 2.70985C11.9984 3.42235 12.4875 4.3286 12.6906 5.30516L8.68439 5.3161Z" fill="white"/>
</svg>
