<svg width="16" height="13" viewBox="0 0 16 13" fill="none" xmlns="http://www.w3.org/2000/svg">
<path d="M1.33341 1.51341L2.18675 0.666748L13.3334 11.8134L12.4867 12.6667L10.4334 10.6134C9.66675 10.8667 8.85341 11.0001 8.00008 11.0001C4.66675 11.0001 1.82008 8.92675 0.666748 6.00008C1.12675 4.82675 1.86008 3.79341 2.79341 2.97341L1.33341 1.51341ZM8.00008 4.00008C8.53051 4.00008 9.03922 4.21079 9.4143 4.58587C9.78937 4.96094 10.0001 5.46965 10.0001 6.00008C10.0004 6.22713 9.96209 6.45257 9.88675 6.66675L7.33342 4.11341C7.54759 4.03807 7.77304 3.99974 8.00008 4.00008ZM8.00008 1.00008C11.3334 1.00008 14.1801 3.07341 15.3334 6.00008C14.7893 7.38222 13.8647 8.58189 12.6667 9.46008L11.7201 8.50675C12.642 7.869 13.3856 7.00612 13.8801 6.00008C13.3411 4.90004 12.5044 3.97326 11.4649 3.32508C10.4255 2.67691 9.22506 2.33333 8.00008 2.33341C7.27342 2.33341 6.56008 2.45341 5.89341 2.66675L4.86675 1.64675C5.82675 1.23341 6.88675 1.00008 8.00008 1.00008ZM2.12008 6.00008C2.65904 7.10012 3.4958 8.0269 4.53523 8.67508C5.57467 9.32325 6.77511 9.66683 8.00008 9.66675C8.46008 9.66675 8.91341 9.62008 9.33342 9.52675L7.81342 8.00008C7.34952 7.95036 6.91663 7.74333 6.58673 7.41343C6.25683 7.08353 6.0498 6.65064 6.00008 6.18675L3.73341 3.91341C3.07341 4.48008 2.52008 5.18675 2.12008 6.00008Z" fill="#888888"/>
</svg>
