<svg width="16" height="16" viewBox="0 0 16 16" fill="none" xmlns="http://www.w3.org/2000/svg">
<path d="M9.15615 7.99944L15.0155 1.01507C15.1137 0.898996 15.0312 0.722656 14.8794 0.722656H13.0981C12.9932 0.722656 12.8928 0.769531 12.8236 0.849888L7.99097 6.61105L3.15838 0.849888C3.09142 0.769531 2.99097 0.722656 2.88383 0.722656H1.10258C0.950793 0.722656 0.868203 0.898996 0.966418 1.01507L6.82579 7.99944L0.966418 14.9838C0.944417 15.0097 0.930302 15.0413 0.92575 15.075C0.921197 15.1086 0.926397 15.1429 0.940733 15.1737C0.955069 15.2045 0.977939 15.2305 1.00663 15.2487C1.03532 15.2669 1.06862 15.2764 1.10258 15.2762H2.88383C2.98874 15.2762 3.08919 15.2294 3.15838 15.149L7.99097 9.38783L12.8236 15.149C12.8905 15.2294 12.991 15.2762 13.0981 15.2762H14.8794C15.0312 15.2762 15.1137 15.0999 15.0155 14.9838L9.15615 7.99944Z" fill="black" fill-opacity="0.45"/>
</svg>
