<svg width="14" height="14" viewBox="0 0 14 14" fill="none" xmlns="http://www.w3.org/2000/svg">
<path fill-rule="evenodd" clip-rule="evenodd" d="M12.622 0.248151C12.6225 0.248287 12.6229 0.248502 12.6237 0.249303L13.7504 1.37606C13.7512 1.37686 13.7515 1.37723 13.7516 1.3777C13.7517 1.37726 13.7517 1.37814 13.7516 1.3777C13.7515 1.37815 13.7512 1.37987 13.7504 1.38067L8.13124 6.99987L13.7504 12.6191C13.7512 12.6198 13.7515 12.6202 13.7516 12.6207C13.7517 12.6202 13.7517 12.6211 13.7516 12.6207C13.7515 12.6211 13.7512 12.6229 13.7504 12.6237L12.6237 13.7504C12.6229 13.7512 12.6225 13.7515 12.622 13.7516C12.6216 13.7517 12.6225 13.7517 12.622 13.7516C12.6216 13.7515 12.6199 13.7512 12.6191 13.7504L6.99987 8.13124L1.38067 13.7504C1.37989 13.7512 1.3795 13.7515 1.37905 13.7516C1.3786 13.7517 1.37949 13.7517 1.37905 13.7516C1.37862 13.7515 1.37686 13.7512 1.37606 13.7504L0.249303 12.6237C0.248502 12.6229 0.248287 12.6225 0.248151 12.622C0.248016 12.6216 0.248016 12.6225 0.248151 12.622C0.248287 12.6216 0.248502 12.6199 0.249303 12.6191L5.86848 6.99987L0.249303 1.38067C0.248502 1.37989 0.248287 1.3795 0.248151 1.37905C0.248012 1.3786 0.248012 1.37949 0.248151 1.37905C0.248287 1.37862 0.248502 1.37686 0.249303 1.37606L1.37606 0.249303C1.37686 0.248502 1.37723 0.248287 1.3777 0.248151C1.37726 0.248016 1.37814 0.248016 1.3777 0.248151C1.37815 0.248287 1.37987 0.248502 1.38067 0.249303L6.99987 5.86848L12.6191 0.249303C12.6198 0.248502 12.6216 0.248287 12.622 0.248151C12.6225 0.248012 12.6216 0.248012 12.622 0.248151Z" fill="#116AB5"/>
</svg>
