<svg width="14" height="9" viewBox="0 0 14 9" fill="none" xmlns="http://www.w3.org/2000/svg">
<path d="M13.6925 1.94254L7.44253 8.19254C7.38449 8.25065 7.31556 8.29675 7.23968 8.3282C7.16381 8.35965 7.08248 8.37584 7.00035 8.37584C6.91821 8.37584 6.83688 8.35965 6.76101 8.3282C6.68514 8.29675 6.6162 8.25065 6.55816 8.19254L0.30816 1.94254C0.190885 1.82526 0.125 1.6662 0.125 1.50035C0.125 1.3345 0.190885 1.17544 0.30816 1.05816C0.425435 0.940884 0.584495 0.875 0.750347 0.875C0.9162 0.875 1.07526 0.940884 1.19253 1.05816L7.00035 6.86675L12.8082 1.05816C12.8662 1.00009 12.9352 0.954028 13.011 0.922601C13.0869 0.891175 13.1682 0.875 13.2503 0.875C13.3325 0.875 13.4138 0.891175 13.4897 0.922601C13.5655 0.954028 13.6345 1.00009 13.6925 1.05816C13.7506 1.11623 13.7967 1.18517 13.8281 1.26104C13.8595 1.33691 13.8757 1.41823 13.8757 1.50035C13.8757 1.58247 13.8595 1.66379 13.8281 1.73966C13.7967 1.81553 13.7506 1.88447 13.6925 1.94254Z" fill="#A2A2A2"/>
</svg>
