<svg width="24" height="24" viewBox="0 0 24 24" fill="none" xmlns="http://www.w3.org/2000/svg">
<path d="M21.3591 6.25875C21.5544 6.04383 21.6831 5.77684 21.7296 5.4902C21.7761 5.20355 21.7384 4.90957 21.621 4.64393C21.5037 4.3783 21.3118 4.15243 21.0686 3.99375C20.8254 3.83507 20.5414 3.75039 20.251 3.75H3.75095C3.46064 3.75057 3.17673 3.83538 2.93366 3.99413C2.6906 4.15288 2.49883 4.37876 2.38161 4.64436C2.26439 4.90996 2.22677 5.20387 2.2733 5.49043C2.31984 5.77699 2.44853 6.04389 2.64376 6.25875L2.65126 6.26719L9.00095 13.0472V20.25C9.00089 20.5215 9.0745 20.7879 9.21395 21.0208C9.35339 21.2537 9.55344 21.4445 9.79275 21.5726C10.0321 21.7008 10.3017 21.7616 10.5729 21.7486C10.844 21.7356 11.1066 21.6493 11.3325 21.4988L14.3325 19.4981C14.5382 19.3611 14.7068 19.1755 14.8234 18.9576C14.94 18.7398 15.001 18.4965 15.001 18.2494V13.0472L21.3506 6.26719L21.3591 6.25875ZM13.7063 12.2428C13.5764 12.38 13.5031 12.5611 13.501 12.75V18.2494L10.501 20.25V12.75C10.5008 12.5599 10.4284 12.3769 10.2985 12.2381L3.75095 5.25H20.251L13.7063 12.2428ZM23.0335 19.725C23.1742 19.8657 23.2532 20.0566 23.2532 20.2556C23.2532 20.4546 23.1742 20.6455 23.0335 20.7863C22.8927 20.927 22.7019 21.006 22.5028 21.006C22.3038 21.006 22.1129 20.927 21.9722 20.7863L20.251 19.0613L18.5316 20.7816C18.3909 20.9222 18.2 21.0011 18.0011 21.001C17.8022 21.0009 17.6114 20.9218 17.4708 20.7811C17.3302 20.6404 17.2513 20.4495 17.2513 20.2506C17.2514 20.0517 17.3305 19.8609 17.4713 19.7203L19.1906 18L17.4713 16.2797C17.3366 16.1379 17.2626 15.9491 17.2651 15.7535C17.2676 15.5579 17.3464 15.3711 17.4847 15.2328C17.623 15.0945 17.8098 15.0157 18.0054 15.0132C18.201 15.0107 18.3898 15.0847 18.5316 15.2194L20.251 16.9397L21.9703 15.2203C22.1109 15.0796 22.3017 15.0005 22.5006 15.0004C22.6996 15.0003 22.8904 15.0792 23.0311 15.2198C23.1718 15.3604 23.251 15.5512 23.251 15.7501C23.2511 15.9491 23.1722 16.1399 23.0316 16.2806L21.3113 18L23.0335 19.725Z" fill="#151515"/>
</svg>
