<svg width="12" height="12" viewBox="0 0 12 12" fill="none" xmlns="http://www.w3.org/2000/svg">
<path d="M11.875 10.375H1.125V0.625C1.125 0.55625 1.06875 0.5 1 0.5H0.125C0.05625 0.5 0 0.55625 0 0.625V11.375C0 11.4438 0.05625 11.5 0.125 11.5H11.875C11.9438 11.5 12 11.4438 12 11.375V10.5C12 10.4313 11.9438 10.375 11.875 10.375ZM2.5 9.125H3.375C3.44375 9.125 3.5 9.06875 3.5 9V6.75C3.5 6.68125 3.44375 6.625 3.375 6.625H2.5C2.43125 6.625 2.375 6.68125 2.375 6.75V9C2.375 9.06875 2.43125 9.125 2.5 9.125ZM4.875 9.125H5.75C5.81875 9.125 5.875 9.06875 5.875 9V4C5.875 3.93125 5.81875 3.875 5.75 3.875H4.875C4.80625 3.875 4.75 3.93125 4.75 4V9C4.75 9.06875 4.80625 9.125 4.875 9.125ZM7.25 9.125H8.125C8.19375 9.125 8.25 9.06875 8.25 9V5.21875C8.25 5.15 8.19375 5.09375 8.125 5.09375H7.25C7.18125 5.09375 7.125 5.15 7.125 5.21875V9C7.125 9.06875 7.18125 9.125 7.25 9.125ZM9.625 9.125H10.5C10.5688 9.125 10.625 9.06875 10.625 9V2.75C10.625 2.68125 10.5688 2.625 10.5 2.625H9.625C9.55625 2.625 9.5 2.68125 9.5 2.75V9C9.5 9.06875 9.55625 9.125 9.625 9.125Z" fill="white"/>
</svg>
