<svg width="9" height="14" viewBox="0 0 9 14" fill="none" xmlns="http://www.w3.org/2000/svg">
<path d="M7.05746 13.6925L0.807465 7.44254C0.749354 7.38449 0.703255 7.31556 0.671802 7.23969C0.640349 7.16381 0.624161 7.08248 0.624161 7.00035C0.624161 6.91821 0.640349 6.83688 0.671802 6.76101C0.703255 6.68514 0.749354 6.61621 0.807465 6.55816L7.05746 0.30816C7.17474 0.190885 7.3338 0.125 7.49965 0.125C7.6655 0.125 7.82456 0.190885 7.94184 0.30816C8.05912 0.425435 8.125 0.584495 8.125 0.750347C8.125 0.9162 8.05912 1.07526 7.94184 1.19253L2.13325 7.00035L7.94184 12.8082C7.99991 12.8662 8.04597 12.9352 8.0774 13.011C8.10883 13.0869 8.125 13.1682 8.125 13.2503C8.125 13.3325 8.10883 13.4138 8.0774 13.4897C8.04597 13.5655 7.99991 13.6345 7.94184 13.6925C7.88377 13.7506 7.81483 13.7967 7.73896 13.8281C7.66309 13.8595 7.58177 13.8757 7.49965 13.8757C7.41753 13.8757 7.33621 13.8595 7.26034 13.8281C7.18447 13.7967 7.11553 13.7506 7.05746 13.6925Z" fill="#626262"/>
</svg>
