<svg width="16" height="10" viewBox="0 0 16 10" fill="none" xmlns="http://www.w3.org/2000/svg">
<path d="M8.00008 3C8.53051 3 9.03922 3.21071 9.4143 3.58579C9.78937 3.96086 10.0001 4.46957 10.0001 5C10.0001 5.53043 9.78937 6.03914 9.4143 6.41421C9.03922 6.78929 8.53051 7 8.00008 7C7.46965 7 6.96094 6.78929 6.58587 6.41421C6.21079 6.03914 6.00008 5.53043 6.00008 5C6.00008 4.46957 6.21079 3.96086 6.58587 3.58579C6.96094 3.21071 7.46965 3 8.00008 3ZM8.00008 0C11.3334 0 14.1801 2.07333 15.3334 5C14.1801 7.92667 11.3334 10 8.00008 10C4.66675 10 1.82008 7.92667 0.666748 5C1.82008 2.07333 4.66675 0 8.00008 0ZM2.12008 5C2.65892 6.1002 3.49562 7.02717 4.53507 7.6755C5.57452 8.32384 6.77501 8.66755 8.00008 8.66755C9.22515 8.66755 10.4256 8.32384 11.4651 7.6755C12.5045 7.02717 13.3412 6.1002 13.8801 5C13.3412 3.8998 12.5045 2.97283 11.4651 2.3245C10.4256 1.67616 9.22515 1.33245 8.00008 1.33245C6.77501 1.33245 5.57452 1.67616 4.53507 2.3245C3.49562 2.97283 2.65892 3.8998 2.12008 5Z" fill="#888888"/>
</svg>
