<svg width="9" height="14" viewBox="0 0 9 14" fill="none" xmlns="http://www.w3.org/2000/svg">
<path d="M1.94254 0.307465L8.19254 6.55746C8.25065 6.61551 8.29675 6.68444 8.3282 6.76031C8.35965 6.83619 8.37584 6.91752 8.37584 6.99965C8.37584 7.08179 8.35965 7.16312 8.3282 7.23899C8.29675 7.31486 8.25065 7.38379 8.19254 7.44184L1.94254 13.6918C1.82526 13.8091 1.6662 13.875 1.50035 13.875C1.3345 13.875 1.17544 13.8091 1.05816 13.6918C0.940884 13.5746 0.875 13.4155 0.875 13.2497C0.875 13.0838 0.940884 12.9247 1.05816 12.8075L6.86675 6.99965L1.05816 1.19184C1.00009 1.13377 0.954028 1.06483 0.922601 0.988962C0.891175 0.913092 0.875 0.831774 0.875 0.749652C0.875 0.66753 0.891175 0.586212 0.922601 0.510342C0.954028 0.434471 1.00009 0.365533 1.05816 0.307465C1.11623 0.249395 1.18517 0.203333 1.26104 0.171906C1.33691 0.14048 1.41823 0.124304 1.50035 0.124304C1.58247 0.124304 1.66379 0.14048 1.73966 0.171906C1.81553 0.203333 1.88447 0.249395 1.94254 0.307465Z" fill="#626262"/>
</svg>
